<?xml version="1.0" encoding="utf-8"?>
<!-- Generator: Adobe Illustrator 23.0.0, SVG Export Plug-In . SVG Version: 6.00 Build 0)  -->
<svg version="1.1" id="Layer_1" xmlns="http://www.w3.org/2000/svg" xmlns:xlink="http://www.w3.org/1999/xlink" x="0px" y="0px"
	 viewBox="0 0 87 14" style="enable-background:new 0 0 87 14;" xml:space="preserve">
<style type="text/css">
	.st0{fill:#FFFFFF;}
</style>
<g>
	<path class="st0" d="M12.3,2.5c-0.1,0.5-0.4,0.9-1,1c-0.6,0.2-1.4,0.2-2.6,0l0.1-0.6c0-0.2-0.1-0.4-0.3-0.5C8.3,2.2,8,2.1,7.7,2.1
		H6.4c-0.3,0-0.6,0.1-0.9,0.2C5.3,2.5,5.1,2.7,5.1,2.9L4,11.1c0,0.2,0.1,0.4,0.3,0.5c0.2,0.1,0.5,0.2,0.9,0.2h1.2
		c0.3,0,0.6-0.1,0.9-0.2c0.3-0.1,0.4-0.3,0.5-0.5l0.2-1.3h3.4L11,11.4c0,0.3-0.2,0.6-0.4,0.9c-0.2,0.3-0.5,0.5-0.9,0.7
		c-0.4,0.2-0.8,0.4-1.3,0.5c-0.5,0.1-1,0.2-1.5,0.2H3.9c-0.5,0-1-0.1-1.4-0.2c-0.4-0.1-0.8-0.3-1.1-0.5c-0.3-0.2-0.5-0.4-0.7-0.7
		c-0.2-0.3-0.2-0.6-0.2-0.9l1.2-8.9C1.8,2.2,2,1.9,2.2,1.6c0.2-0.3,0.5-0.5,0.9-0.7c0.4-0.2,0.8-0.4,1.2-0.5
		c0.5-0.1,0.9-0.2,1.4-0.2h3.1c0.5,0,1,0.1,1.4,0.2c0.4,0.1,0.8,0.3,1.1,0.5c0.3,0.2,0.5,0.4,0.7,0.7C12.2,1.9,12.3,2.2,12.3,2.5z"
		/>
	<path class="st0" d="M20.2,3.1c0.5,0,1,0.1,1.4,0.2c0.4,0.1,0.8,0.3,1.1,0.5C23,4,23.3,4.2,23.4,4.5c0.2,0.3,0.2,0.6,0.2,0.9
		l-1.2,8.3H19l1.2-7.9c0-0.2-0.1-0.4-0.3-0.5C19.6,5.1,19.3,5,19,5h-0.9c-0.4,0-0.7,0.1-0.9,0.2c-0.3,0.2-0.4,0.3-0.4,0.5l-1.1,7.9
		h-3.4l1.9-13.4C14.6,0.1,15,0,15.4,0c0.4,0,0.8,0.2,1,0.4c0.3,0.2,0.5,0.5,0.6,0.9c0.1,0.4,0.2,0.8,0.1,1.2L17,3.6
		c0.7-0.3,1.5-0.5,2.3-0.5H20.2z"/>
	<path class="st0" d="M25.4,3.3c0.5-0.1,1-0.2,1.4-0.2c0.4,0,0.8,0.1,1,0.2c0.3,0.1,0.5,0.4,0.6,0.7c0.1,0.3,0.1,0.7,0,1.2l-1.2,8.4
		H24L25.4,3.3z M29.2,0.3l-0.3,2h-3.4l0.2-2H29.2z"/>
	<path class="st0" d="M39.4,13.6c-2.3,0.3-3.5,0.2-3.4-0.3c-0.4,0.1-0.8,0.3-1.2,0.4c-0.4,0.1-0.8,0.1-1.2,0.1h-1.1
		c-0.5,0-1-0.1-1.4-0.2c-0.4-0.1-0.8-0.3-1.1-0.5c-0.3-0.2-0.5-0.4-0.7-0.7c-0.2-0.3-0.2-0.6-0.2-0.8l0.4-2.4c0-0.3,0.2-0.6,0.4-0.9
		c0.2-0.3,0.5-0.5,0.9-0.7c0.4-0.2,0.8-0.4,1.2-0.5C32.5,7,33,7,33.5,7h2.2c0.3,0,0.7-0.1,0.9-0.2c0.3-0.2,0.4-0.3,0.4-0.5l0.1-0.4
		c0-0.2-0.1-0.4-0.3-0.5C36.6,5.1,36.3,5,36,5h-0.9c-0.3,0-0.6,0.1-0.9,0.2c-0.3,0.2-0.4,0.3-0.4,0.5l-0.1,0.1h-3.3l0-0.5
		c0-0.3,0.2-0.6,0.4-0.9C31,4.2,31.3,4,31.7,3.8c0.4-0.2,0.8-0.4,1.3-0.5c0.5-0.1,1-0.2,1.5-0.2h2.8c0.5,0,1,0.1,1.4,0.2
		c0.4,0.1,0.8,0.3,1.1,0.5C40,4,40.3,4.2,40.4,4.5c0.2,0.3,0.2,0.6,0.2,0.9L39.4,13.6z M36.7,8.4c-0.3,0.1-0.7,0.3-1.1,0.3
		c-0.4,0.1-0.8,0.1-1.2,0.1h-0.2c-0.3,0-0.6,0.1-0.9,0.2c-0.3,0.2-0.4,0.3-0.5,0.5l-0.2,1.7c0,0.2,0.1,0.4,0.3,0.5
		c0.2,0.1,0.5,0.2,0.9,0.2H35c0.3,0,0.6-0.1,0.9-0.2c0.3-0.1,0.4-0.3,0.4-0.5L36.7,8.4z"/>
	<path class="st0" d="M51.2,13.6c-2,0.8-3.5,0.2-4.3-1.8l-1.1-2.7l-0.9,0.9l-0.5,3.7H41l1.9-13.4c0.5-0.2,1-0.3,1.4-0.3
		c0.4,0,0.8,0.2,1,0.4c0.3,0.2,0.5,0.5,0.6,0.9C46,1.6,46,2.1,46,2.5l-0.6,4l3.4-3.2H52l-3.6,3.4L51.2,13.6z"/>
	<path class="st0" d="M54.2,3.3c0.5-0.1,1-0.2,1.4-0.2c0.4,0,0.8,0.1,1,0.2c0.3,0.1,0.5,0.4,0.6,0.7c0.1,0.3,0.1,0.7,0,1.2l-1.2,8.4
		h-3.4L54.2,3.3z M58,0.3l-0.3,2h-3.4l0.2-2H58z"/>
	<path class="st0" d="M57.7,13.6l0.3-2h3.4l-0.2,2H57.7z"/>
	<path class="st0" d="M75.1,3.3l-5.2,10.3C69.4,13.9,69,14,68.5,14c-0.4,0-0.8-0.1-1.2-0.3c-0.4-0.2-0.7-0.5-0.9-0.9
		c-0.3-0.4-0.5-0.9-0.6-1.5l-1.7-8h3.4l1.3,5.6l2.8-5.6H75.1z"/>
	<path class="st0" d="M83.1,3.1c0.5,0,1,0.1,1.4,0.2c0.4,0.1,0.8,0.3,1.1,0.5c0.3,0.2,0.5,0.4,0.7,0.7c0.2,0.3,0.2,0.6,0.2,0.9
		l-1.1,8.3c-0.5,0.2-1,0.3-1.4,0.2c-0.4,0-0.8-0.1-1-0.2c-0.3-0.2-0.5-0.4-0.6-0.7c-0.1-0.3-0.2-0.7-0.1-1.1l0.9-6.1
		c0-0.2-0.1-0.4-0.3-0.5C82.5,5.1,82.3,5,81.9,5H81c-0.4,0-0.7,0.1-0.9,0.2c-0.3,0.2-0.4,0.3-0.4,0.5L78.6,14h-3.5l1.5-10.7
		c0.4,0,0.8-0.1,1.2-0.1c0.4,0,0.7-0.1,1,0c0.3,0,0.6,0.1,0.8,0.1c0.2,0.1,0.3,0.2,0.4,0.4c0.7-0.3,1.5-0.5,2.3-0.5H83.1z"/>
</g>
</svg>
